<?xml version="1.0" encoding="utf-8" standalone="no"?>
<!DOCTYPE svg PUBLIC "-//W3C//DTD SVG 1.1//EN"
  "http://www.w3.org/Graphics/SVG/1.1/DTD/svg11.dtd">
<svg xmlns:xlink="http://www.w3.org/1999/xlink" width="460.8pt" height="345.6pt" viewBox="0 0 460.8 345.6" xmlns="http://www.w3.org/2000/svg" version="1.1">
 <metadata>
  <rdf:RDF xmlns:dc="http://purl.org/dc/elements/1.1/" xmlns:cc="http://creativecommons.org/ns#" xmlns:rdf="http://www.w3.org/1999/02/22-rdf-syntax-ns#">
   <cc:Work>
    <dc:type rdf:resource="http://purl.org/dc/dcmitype/StillImage"/>
    <dc:date>2026-05-12T20:47:10.378760</dc:date>
    <dc:format>image/svg+xml</dc:format>
    <dc:creator>
     <cc:Agent>
      <dc:title>Matplotlib v3.9.2, https://matplotlib.org/</dc:title>
     </cc:Agent>
    </dc:creator>
   </cc:Work>
  </rdf:RDF>
 </metadata>
 <defs>
  <style type="text/css">*{stroke-linejoin: round; stroke-linecap: butt}</style>
 </defs>
 <g id="figure_1">
  <g id="patch_1">
   <path d="M 0 345.6 
L 460.8 345.6 
L 460.8 0 
L 0 0 
z
" style="fill: #ffffff"/>
  </g>
  <g id="patch_2">
   <path d="M 103.104 307.584 
L 369.216 307.584 
L 369.216 41.472 
L 103.104 41.472 
z
" style="fill: #ffffff"/>
  </g>
  <g id="pane3d_1">
   <g id="patch_3">
    <path d="M 123.197291 241.969309 
L 211.076164 168.307495 
L 209.854564 62.073991 
L 117.770234 129.272941 
" style="fill: #f2f2f2; opacity: 0.5; stroke: #f2f2f2; stroke-linejoin: miter"/>
   </g>
  </g>
  <g id="pane3d_2">
   <g id="patch_4">
    <path d="M 211.076164 168.307495 
L 352.090401 209.294766 
L 357.122702 99.402171 
L 209.854564 62.073991 
" style="fill: #e6e6e6; opacity: 0.5; stroke: #e6e6e6; stroke-linejoin: miter"/>
   </g>
  </g>
  <g id="pane3d_3">
   <g id="patch_5">
    <path d="M 123.197291 241.969309 
L 272.679269 290.790123 
L 352.090401 209.294766 
L 211.076164 168.307495 
" style="fill: #ececec; opacity: 0.5; stroke: #ececec; stroke-linejoin: miter"/>
   </g>
  </g>
  <g id="grid3d_1">
   <g id="Line3DCollection_1">
    <path d="M 130.901949 244.48565 
L 218.37487 170.42894 
L 217.461719 64.002183 
" style="fill: none; stroke: #b0b0b0; stroke-width: 0.8"/>
    <path d="M 152.563222 251.560222 
L 238.877008 176.388103 
L 238.839182 69.420747 
" style="fill: none; stroke: #b0b0b0; stroke-width: 0.8"/>
    <path d="M 174.56619 258.746391 
L 259.67568 182.433455 
L 260.539244 74.92108 
" style="fill: none; stroke: #b0b0b0; stroke-width: 0.8"/>
    <path d="M 196.919003 266.04682 
L 280.777366 188.566883 
L 282.569263 80.505047 
" style="fill: none; stroke: #b0b0b0; stroke-width: 0.8"/>
    <path d="M 219.630071 273.464255 
L 302.188738 194.790323 
L 304.936822 86.174572 
" style="fill: none; stroke: #b0b0b0; stroke-width: 0.8"/>
    <path d="M 242.708077 281.001531 
L 323.916662 201.105773 
L 327.649738 91.931634 
" style="fill: none; stroke: #b0b0b0; stroke-width: 0.8"/>
    <path d="M 266.161985 288.661578 
L 345.968211 207.515287 
L 350.716072 97.778277 
" style="fill: none; stroke: #b0b0b0; stroke-width: 0.8"/>
   </g>
  </g>
  <g id="grid3d_2">
   <g id="Line3DCollection_2">
    <path d="M 132.888005 118.24068 
L 137.578908 229.914352 
L 285.723176 277.403865 
" style="fill: none; stroke: #b0b0b0; stroke-width: 0.8"/>
    <path d="M 148.312934 106.984269 
L 152.271197 217.598985 
L 299.029377 263.748429 
" style="fill: none; stroke: #b0b0b0; stroke-width: 0.8"/>
    <path d="M 163.297768 96.04902 
L 166.562189 205.619992 
L 311.953295 250.48531 
" style="fill: none; stroke: #b0b0b0; stroke-width: 0.8"/>
    <path d="M 177.861074 85.421383 
L 180.468106 193.963777 
L 324.51117 237.597841 
" style="fill: none; stroke: #b0b0b0; stroke-width: 0.8"/>
    <path d="M 192.020393 75.088556 
L 194.004303 182.617468 
L 336.718336 225.070286 
" style="fill: none; stroke: #b0b0b0; stroke-width: 0.8"/>
    <path d="M 205.792306 65.038442 
L 207.185332 171.568867 
L 348.589283 212.887774 
" style="fill: none; stroke: #b0b0b0; stroke-width: 0.8"/>
   </g>
  </g>
  <g id="grid3d_3">
   <g id="Line3DCollection_3">
    <path d="M 352.510323 200.124733 
L 210.97403 159.425629 
L 122.745127 232.579837 
" style="fill: none; stroke: #b0b0b0; stroke-width: 0.8"/>
    <path d="M 353.22029 184.620874 
L 210.801432 144.416098 
L 121.980361 216.698963 
" style="fill: none; stroke: #b0b0b0; stroke-width: 0.8"/>
    <path d="M 353.939254 168.920535 
L 210.626752 129.225466 
L 121.205532 200.609134 
" style="fill: none; stroke: #b0b0b0; stroke-width: 0.8"/>
    <path d="M 354.667387 153.019958 
L 210.449952 113.850436 
L 120.42044 184.306197 
" style="fill: none; stroke: #b0b0b0; stroke-width: 0.8"/>
    <path d="M 355.404867 136.915287 
L 210.270992 98.287628 
L 119.624881 167.785891 
" style="fill: none; stroke: #b0b0b0; stroke-width: 0.8"/>
    <path d="M 356.151874 120.602566 
L 210.089833 82.533581 
L 118.818643 151.043839 
" style="fill: none; stroke: #b0b0b0; stroke-width: 0.8"/>
    <path d="M 356.908594 104.077739 
L 209.906434 66.58475 
L 118.00151 134.075547 
" style="fill: none; stroke: #b0b0b0; stroke-width: 0.8"/>
   </g>
  </g>
  <g id="axis3d_1">
   <g id="line2d_1">
    <path d="M 123.197291 241.969309 
L 272.679269 290.790123 
" style="fill: none; stroke: #000000; stroke-width: 0.8; stroke-linecap: square"/>
   </g>
   <g id="xtick_1">
    <g id="line2d_2">
     <path d="M 131.663628 243.840794 
L 129.375323 245.778128 
" style="fill: none; stroke: #000000; stroke-width: 0.8; stroke-linecap: square"/>
    </g>
    <g id="text_1">
     <!-- −0.006 -->
     <g transform="translate(104.867662 267.785483) scale(0.1 -0.1)">
      <defs>
       <path id="DejaVuSans-2212" d="M 678 2272 
L 4684 2272 
L 4684 1741 
L 678 1741 
L 678 2272 
z
" transform="scale(0.015625)"/>
       <path id="DejaVuSans-30" d="M 2034 4250 
Q 1547 4250 1301 3770 
Q 1056 3291 1056 2328 
Q 1056 1369 1301 889 
Q 1547 409 2034 409 
Q 2525 409 2770 889 
Q 3016 1369 3016 2328 
Q 3016 3291 2770 3770 
Q 2525 4250 2034 4250 
z
M 2034 4750 
Q 2819 4750 3233 4129 
Q 3647 3509 3647 2328 
Q 3647 1150 3233 529 
Q 2819 -91 2034 -91 
Q 1250 -91 836 529 
Q 422 1150 422 2328 
Q 422 3509 836 4129 
Q 1250 4750 2034 4750 
z
" transform="scale(0.015625)"/>
       <path id="DejaVuSans-2e" d="M 684 794 
L 1344 794 
L 1344 0 
L 684 0 
L 684 794 
z
" transform="scale(0.015625)"/>
       <path id="DejaVuSans-36" d="M 2113 2584 
Q 1688 2584 1439 2293 
Q 1191 2003 1191 1497 
Q 1191 994 1439 701 
Q 1688 409 2113 409 
Q 2538 409 2786 701 
Q 3034 994 3034 1497 
Q 3034 2003 2786 2293 
Q 2538 2584 2113 2584 
z
M 3366 4563 
L 3366 3988 
Q 3128 4100 2886 4159 
Q 2644 4219 2406 4219 
Q 1781 4219 1451 3797 
Q 1122 3375 1075 2522 
Q 1259 2794 1537 2939 
Q 1816 3084 2150 3084 
Q 2853 3084 3261 2657 
Q 3669 2231 3669 1497 
Q 3669 778 3244 343 
Q 2819 -91 2113 -91 
Q 1303 -91 875 529 
Q 447 1150 447 2328 
Q 447 3434 972 4092 
Q 1497 4750 2381 4750 
Q 2619 4750 2861 4703 
Q 3103 4656 3366 4563 
z
" transform="scale(0.015625)"/>
      </defs>
      <use xlink:href="#DejaVuSans-2212"/>
      <use xlink:href="#DejaVuSans-30" x="83.789062"/>
      <use xlink:href="#DejaVuSans-2e" x="147.412109"/>
      <use xlink:href="#DejaVuSans-30" x="179.199219"/>
      <use xlink:href="#DejaVuSans-30" x="242.822266"/>
      <use xlink:href="#DejaVuSans-36" x="306.445312"/>
     </g>
    </g>
   </g>
   <g id="xtick_2">
    <g id="line2d_3">
     <path d="M 153.315285 250.905237 
L 151.055844 252.873022 
" style="fill: none; stroke: #000000; stroke-width: 0.8; stroke-linecap: square"/>
    </g>
    <g id="text_2">
     <!-- −0.004 -->
     <g transform="translate(126.550899 275.009878) scale(0.1 -0.1)">
      <defs>
       <path id="DejaVuSans-34" d="M 2419 4116 
L 825 1625 
L 2419 1625 
L 2419 4116 
z
M 2253 4666 
L 3047 4666 
L 3047 1625 
L 3713 1625 
L 3713 1100 
L 3047 1100 
L 3047 0 
L 2419 0 
L 2419 1100 
L 313 1100 
L 313 1709 
L 2253 4666 
z
" transform="scale(0.015625)"/>
      </defs>
      <use xlink:href="#DejaVuSans-2212"/>
      <use xlink:href="#DejaVuSans-30" x="83.789062"/>
      <use xlink:href="#DejaVuSans-2e" x="147.412109"/>
      <use xlink:href="#DejaVuSans-30" x="179.199219"/>
      <use xlink:href="#DejaVuSans-30" x="242.822266"/>
      <use xlink:href="#DejaVuSans-34" x="306.445312"/>
     </g>
    </g>
   </g>
   <g id="xtick_3">
    <g id="line2d_4">
     <path d="M 175.308239 258.081038 
L 173.07886 260.079997 
" style="fill: none; stroke: #000000; stroke-width: 0.8; stroke-linecap: square"/>
    </g>
    <g id="text_3">
     <!-- −0.002 -->
     <g transform="translate(148.577469 282.348664) scale(0.1 -0.1)">
      <defs>
       <path id="DejaVuSans-32" d="M 1228 531 
L 3431 531 
L 3431 0 
L 469 0 
L 469 531 
Q 828 903 1448 1529 
Q 2069 2156 2228 2338 
Q 2531 2678 2651 2914 
Q 2772 3150 2772 3378 
Q 2772 3750 2511 3984 
Q 2250 4219 1831 4219 
Q 1534 4219 1204 4116 
Q 875 4013 500 3803 
L 500 4441 
Q 881 4594 1212 4672 
Q 1544 4750 1819 4750 
Q 2544 4750 2975 4387 
Q 3406 4025 3406 3419 
Q 3406 3131 3298 2873 
Q 3191 2616 2906 2266 
Q 2828 2175 2409 1742 
Q 1991 1309 1228 531 
z
" transform="scale(0.015625)"/>
      </defs>
      <use xlink:href="#DejaVuSans-2212"/>
      <use xlink:href="#DejaVuSans-30" x="83.789062"/>
      <use xlink:href="#DejaVuSans-2e" x="147.412109"/>
      <use xlink:href="#DejaVuSans-30" x="179.199219"/>
      <use xlink:href="#DejaVuSans-30" x="242.822266"/>
      <use xlink:href="#DejaVuSans-32" x="306.445312"/>
     </g>
    </g>
   </g>
   <g id="xtick_4">
    <g id="line2d_5">
     <path d="M 197.650623 265.370849 
L 195.452552 267.40173 
" style="fill: none; stroke: #000000; stroke-width: 0.8; stroke-linecap: square"/>
    </g>
    <g id="text_4">
     <!-- 0.000 -->
     <g transform="translate(175.145434 289.80458) scale(0.1 -0.1)">
      <use xlink:href="#DejaVuSans-30"/>
      <use xlink:href="#DejaVuSans-2e" x="63.623047"/>
      <use xlink:href="#DejaVuSans-30" x="95.410156"/>
      <use xlink:href="#DejaVuSans-30" x="159.033203"/>
      <use xlink:href="#DejaVuSans-30" x="222.65625"/>
     </g>
    </g>
   </g>
   <g id="xtick_5">
    <g id="line2d_6">
     <path d="M 220.35083 272.777411 
L 218.185363 274.840984 
" style="fill: none; stroke: #000000; stroke-width: 0.8; stroke-linecap: square"/>
    </g>
    <g id="text_5">
     <!-- 0.002 -->
     <g transform="translate(197.883592 297.380452) scale(0.1 -0.1)">
      <use xlink:href="#DejaVuSans-30"/>
      <use xlink:href="#DejaVuSans-2e" x="63.623047"/>
      <use xlink:href="#DejaVuSans-30" x="95.410156"/>
      <use xlink:href="#DejaVuSans-30" x="159.033203"/>
      <use xlink:href="#DejaVuSans-32" x="222.65625"/>
     </g>
    </g>
   </g>
   <g id="xtick_6">
    <g id="line2d_7">
     <path d="M 243.417528 280.303549 
L 241.286009 282.40061 
" style="fill: none; stroke: #000000; stroke-width: 0.8; stroke-linecap: square"/>
    </g>
    <g id="text_6">
     <!-- 0.004 -->
     <g transform="translate(220.990545 305.079199) scale(0.1 -0.1)">
      <use xlink:href="#DejaVuSans-30"/>
      <use xlink:href="#DejaVuSans-2e" x="63.623047"/>
      <use xlink:href="#DejaVuSans-30" x="95.410156"/>
      <use xlink:href="#DejaVuSans-30" x="159.033203"/>
      <use xlink:href="#DejaVuSans-34" x="222.65625"/>
     </g>
    </g>
   </g>
   <g id="xtick_7">
    <g id="line2d_8">
     <path d="M 266.859663 287.952185 
L 264.76349 290.083555 
" style="fill: none; stroke: #000000; stroke-width: 0.8; stroke-linecap: square"/>
    </g>
    <g id="text_7">
     <!-- 0.006 -->
     <g transform="translate(244.475339 312.903835) scale(0.1 -0.1)">
      <use xlink:href="#DejaVuSans-30"/>
      <use xlink:href="#DejaVuSans-2e" x="63.623047"/>
      <use xlink:href="#DejaVuSans-30" x="95.410156"/>
      <use xlink:href="#DejaVuSans-30" x="159.033203"/>
      <use xlink:href="#DejaVuSans-36" x="222.65625"/>
     </g>
    </g>
   </g>
   <g id="text_8">
    <!-- PC1 (31.22%) -->
    <g transform="translate(146.268862 293.000119) rotate(-341.912962) scale(0.1 -0.1)">
     <defs>
      <path id="DejaVuSans-50" d="M 1259 4147 
L 1259 2394 
L 2053 2394 
Q 2494 2394 2734 2622 
Q 2975 2850 2975 3272 
Q 2975 3691 2734 3919 
Q 2494 4147 2053 4147 
L 1259 4147 
z
M 628 4666 
L 2053 4666 
Q 2838 4666 3239 4311 
Q 3641 3956 3641 3272 
Q 3641 2581 3239 2228 
Q 2838 1875 2053 1875 
L 1259 1875 
L 1259 0 
L 628 0 
L 628 4666 
z
" transform="scale(0.015625)"/>
      <path id="DejaVuSans-43" d="M 4122 4306 
L 4122 3641 
Q 3803 3938 3442 4084 
Q 3081 4231 2675 4231 
Q 1875 4231 1450 3742 
Q 1025 3253 1025 2328 
Q 1025 1406 1450 917 
Q 1875 428 2675 428 
Q 3081 428 3442 575 
Q 3803 722 4122 1019 
L 4122 359 
Q 3791 134 3420 21 
Q 3050 -91 2638 -91 
Q 1578 -91 968 557 
Q 359 1206 359 2328 
Q 359 3453 968 4101 
Q 1578 4750 2638 4750 
Q 3056 4750 3426 4639 
Q 3797 4528 4122 4306 
z
" transform="scale(0.015625)"/>
      <path id="DejaVuSans-31" d="M 794 531 
L 1825 531 
L 1825 4091 
L 703 3866 
L 703 4441 
L 1819 4666 
L 2450 4666 
L 2450 531 
L 3481 531 
L 3481 0 
L 794 0 
L 794 531 
z
" transform="scale(0.015625)"/>
      <path id="DejaVuSans-20" transform="scale(0.015625)"/>
      <path id="DejaVuSans-28" d="M 1984 4856 
Q 1566 4138 1362 3434 
Q 1159 2731 1159 2009 
Q 1159 1288 1364 580 
Q 1569 -128 1984 -844 
L 1484 -844 
Q 1016 -109 783 600 
Q 550 1309 550 2009 
Q 550 2706 781 3412 
Q 1013 4119 1484 4856 
L 1984 4856 
z
" transform="scale(0.015625)"/>
      <path id="DejaVuSans-33" d="M 2597 2516 
Q 3050 2419 3304 2112 
Q 3559 1806 3559 1356 
Q 3559 666 3084 287 
Q 2609 -91 1734 -91 
Q 1441 -91 1130 -33 
Q 819 25 488 141 
L 488 750 
Q 750 597 1062 519 
Q 1375 441 1716 441 
Q 2309 441 2620 675 
Q 2931 909 2931 1356 
Q 2931 1769 2642 2001 
Q 2353 2234 1838 2234 
L 1294 2234 
L 1294 2753 
L 1863 2753 
Q 2328 2753 2575 2939 
Q 2822 3125 2822 3475 
Q 2822 3834 2567 4026 
Q 2313 4219 1838 4219 
Q 1578 4219 1281 4162 
Q 984 4106 628 3988 
L 628 4550 
Q 988 4650 1302 4700 
Q 1616 4750 1894 4750 
Q 2613 4750 3031 4423 
Q 3450 4097 3450 3541 
Q 3450 3153 3228 2886 
Q 3006 2619 2597 2516 
z
" transform="scale(0.015625)"/>
      <path id="DejaVuSans-25" d="M 4653 2053 
Q 4381 2053 4226 1822 
Q 4072 1591 4072 1178 
Q 4072 772 4226 539 
Q 4381 306 4653 306 
Q 4919 306 5073 539 
Q 5228 772 5228 1178 
Q 5228 1588 5073 1820 
Q 4919 2053 4653 2053 
z
M 4653 2450 
Q 5147 2450 5437 2106 
Q 5728 1763 5728 1178 
Q 5728 594 5436 251 
Q 5144 -91 4653 -91 
Q 4153 -91 3862 251 
Q 3572 594 3572 1178 
Q 3572 1766 3864 2108 
Q 4156 2450 4653 2450 
z
M 1428 4353 
Q 1159 4353 1004 4120 
Q 850 3888 850 3481 
Q 850 3069 1003 2837 
Q 1156 2606 1428 2606 
Q 1700 2606 1854 2837 
Q 2009 3069 2009 3481 
Q 2009 3884 1853 4118 
Q 1697 4353 1428 4353 
z
M 4250 4750 
L 4750 4750 
L 1831 -91 
L 1331 -91 
L 4250 4750 
z
M 1428 4750 
Q 1922 4750 2215 4408 
Q 2509 4066 2509 3481 
Q 2509 2891 2217 2550 
Q 1925 2209 1428 2209 
Q 931 2209 642 2551 
Q 353 2894 353 3481 
Q 353 4063 643 4406 
Q 934 4750 1428 4750 
z
" transform="scale(0.015625)"/>
      <path id="DejaVuSans-29" d="M 513 4856 
L 1013 4856 
Q 1481 4119 1714 3412 
Q 1947 2706 1947 2009 
Q 1947 1309 1714 600 
Q 1481 -109 1013 -844 
L 513 -844 
Q 928 -128 1133 580 
Q 1338 1288 1338 2009 
Q 1338 2731 1133 3434 
Q 928 4138 513 4856 
z
" transform="scale(0.015625)"/>
     </defs>
     <use xlink:href="#DejaVuSans-50"/>
     <use xlink:href="#DejaVuSans-43" x="60.302734"/>
     <use xlink:href="#DejaVuSans-31" x="130.126953"/>
     <use xlink:href="#DejaVuSans-20" x="193.75"/>
     <use xlink:href="#DejaVuSans-28" x="225.537109"/>
     <use xlink:href="#DejaVuSans-33" x="264.550781"/>
     <use xlink:href="#DejaVuSans-31" x="328.173828"/>
     <use xlink:href="#DejaVuSans-2e" x="391.796875"/>
     <use xlink:href="#DejaVuSans-32" x="423.583984"/>
     <use xlink:href="#DejaVuSans-32" x="487.207031"/>
     <use xlink:href="#DejaVuSans-25" x="550.830078"/>
     <use xlink:href="#DejaVuSans-29" x="645.849609"/>
    </g>
   </g>
  </g>
  <g id="axis3d_2">
   <g id="line2d_9">
    <path d="M 352.090401 209.294766 
L 272.679269 290.790123 
" style="fill: none; stroke: #000000; stroke-width: 0.8; stroke-linecap: square"/>
   </g>
   <g id="xtick_8">
    <g id="line2d_10">
     <path d="M 284.475278 277.003836 
L 288.222172 278.20495 
" style="fill: none; stroke: #000000; stroke-width: 0.8; stroke-linecap: square"/>
    </g>
    <g id="text_9">
     <!-- −0.002 -->
     <g transform="translate(279.998692 298.310846) scale(0.1 -0.1)">
      <use xlink:href="#DejaVuSans-2212"/>
      <use xlink:href="#DejaVuSans-30" x="83.789062"/>
      <use xlink:href="#DejaVuSans-2e" x="147.412109"/>
      <use xlink:href="#DejaVuSans-30" x="179.199219"/>
      <use xlink:href="#DejaVuSans-30" x="242.822266"/>
      <use xlink:href="#DejaVuSans-32" x="306.445312"/>
     </g>
    </g>
   </g>
   <g id="xtick_9">
    <g id="line2d_11">
     <path d="M 297.794061 263.359973 
L 301.503132 264.526324 
" style="fill: none; stroke: #000000; stroke-width: 0.8; stroke-linecap: square"/>
    </g>
    <g id="text_10">
     <!-- 0.000 -->
     <g transform="translate(297.316164 284.453344) scale(0.1 -0.1)">
      <use xlink:href="#DejaVuSans-30"/>
      <use xlink:href="#DejaVuSans-2e" x="63.623047"/>
      <use xlink:href="#DejaVuSans-30" x="95.410156"/>
      <use xlink:href="#DejaVuSans-30" x="159.033203"/>
      <use xlink:href="#DejaVuSans-30" x="222.65625"/>
     </g>
    </g>
   </g>
   <g id="xtick_10">
    <g id="line2d_12">
     <path d="M 310.730357 250.107932 
L 314.402218 251.241008 
" style="fill: none; stroke: #000000; stroke-width: 0.8; stroke-linecap: square"/>
    </g>
    <g id="text_11">
     <!-- 0.002 -->
     <g transform="translate(310.066423 270.994193) scale(0.1 -0.1)">
      <use xlink:href="#DejaVuSans-30"/>
      <use xlink:href="#DejaVuSans-2e" x="63.623047"/>
      <use xlink:href="#DejaVuSans-30" x="95.410156"/>
      <use xlink:href="#DejaVuSans-30" x="159.033203"/>
      <use xlink:href="#DejaVuSans-32" x="222.65625"/>
     </g>
    </g>
   </g>
   <g id="xtick_11">
    <g id="line2d_13">
     <path d="M 323.30041 237.231073 
L 326.935664 238.332278 
" style="fill: none; stroke: #000000; stroke-width: 0.8; stroke-linecap: square"/>
    </g>
    <g id="text_12">
     <!-- 0.004 -->
     <g transform="translate(322.455351 257.916462) scale(0.1 -0.1)">
      <use xlink:href="#DejaVuSans-30"/>
      <use xlink:href="#DejaVuSans-2e" x="63.623047"/>
      <use xlink:href="#DejaVuSans-30" x="95.410156"/>
      <use xlink:href="#DejaVuSans-30" x="159.033203"/>
      <use xlink:href="#DejaVuSans-34" x="222.65625"/>
     </g>
    </g>
   </g>
   <g id="xtick_12">
    <g id="line2d_14">
     <path d="M 335.519555 224.713687 
L 339.118802 225.784346 
" style="fill: none; stroke: #000000; stroke-width: 0.8; stroke-linecap: square"/>
    </g>
    <g id="text_13">
     <!-- 0.006 -->
     <g transform="translate(334.498095 245.204162) scale(0.1 -0.1)">
      <use xlink:href="#DejaVuSans-30"/>
      <use xlink:href="#DejaVuSans-2e" x="63.623047"/>
      <use xlink:href="#DejaVuSans-30" x="95.410156"/>
      <use xlink:href="#DejaVuSans-30" x="159.033203"/>
      <use xlink:href="#DejaVuSans-36" x="222.65625"/>
     </g>
    </g>
   </g>
   <g id="xtick_13">
    <g id="line2d_15">
     <path d="M 347.402285 212.540927 
L 350.966114 213.582295 
" style="fill: none; stroke: #000000; stroke-width: 0.8; stroke-linecap: square"/>
    </g>
    <g id="text_14">
     <!-- 0.008 -->
     <g transform="translate(346.208965 232.842188) scale(0.1 -0.1)">
      <defs>
       <path id="DejaVuSans-38" d="M 2034 2216 
Q 1584 2216 1326 1975 
Q 1069 1734 1069 1313 
Q 1069 891 1326 650 
Q 1584 409 2034 409 
Q 2484 409 2743 651 
Q 3003 894 3003 1313 
Q 3003 1734 2745 1975 
Q 2488 2216 2034 2216 
z
M 1403 2484 
Q 997 2584 770 2862 
Q 544 3141 544 3541 
Q 544 4100 942 4425 
Q 1341 4750 2034 4750 
Q 2731 4750 3128 4425 
Q 3525 4100 3525 3541 
Q 3525 3141 3298 2862 
Q 3072 2584 2669 2484 
Q 3125 2378 3379 2068 
Q 3634 1759 3634 1313 
Q 3634 634 3220 271 
Q 2806 -91 2034 -91 
Q 1263 -91 848 271 
Q 434 634 434 1313 
Q 434 1759 690 2068 
Q 947 2378 1403 2484 
z
M 1172 3481 
Q 1172 3119 1398 2916 
Q 1625 2713 2034 2713 
Q 2441 2713 2670 2916 
Q 2900 3119 2900 3481 
Q 2900 3844 2670 4047 
Q 2441 4250 2034 4250 
Q 1625 4250 1398 4047 
Q 1172 3844 1172 3481 
z
" transform="scale(0.015625)"/>
      </defs>
      <use xlink:href="#DejaVuSans-30"/>
      <use xlink:href="#DejaVuSans-2e" x="63.623047"/>
      <use xlink:href="#DejaVuSans-30" x="95.410156"/>
      <use xlink:href="#DejaVuSans-30" x="159.033203"/>
      <use xlink:href="#DejaVuSans-38" x="222.65625"/>
     </g>
    </g>
   </g>
   <g id="text_15">
    <!-- PC2 (25.04%) -->
    <g transform="translate(319.211269 302.680075) rotate(-45.742112) scale(0.1 -0.1)">
     <defs>
      <path id="DejaVuSans-35" d="M 691 4666 
L 3169 4666 
L 3169 4134 
L 1269 4134 
L 1269 2991 
Q 1406 3038 1543 3061 
Q 1681 3084 1819 3084 
Q 2600 3084 3056 2656 
Q 3513 2228 3513 1497 
Q 3513 744 3044 326 
Q 2575 -91 1722 -91 
Q 1428 -91 1123 -41 
Q 819 9 494 109 
L 494 744 
Q 775 591 1075 516 
Q 1375 441 1709 441 
Q 2250 441 2565 725 
Q 2881 1009 2881 1497 
Q 2881 1984 2565 2268 
Q 2250 2553 1709 2553 
Q 1456 2553 1204 2497 
Q 953 2441 691 2322 
L 691 4666 
z
" transform="scale(0.015625)"/>
     </defs>
     <use xlink:href="#DejaVuSans-50"/>
     <use xlink:href="#DejaVuSans-43" x="60.302734"/>
     <use xlink:href="#DejaVuSans-32" x="130.126953"/>
     <use xlink:href="#DejaVuSans-20" x="193.75"/>
     <use xlink:href="#DejaVuSans-28" x="225.537109"/>
     <use xlink:href="#DejaVuSans-32" x="264.550781"/>
     <use xlink:href="#DejaVuSans-35" x="328.173828"/>
     <use xlink:href="#DejaVuSans-2e" x="391.796875"/>
     <use xlink:href="#DejaVuSans-30" x="423.583984"/>
     <use xlink:href="#DejaVuSans-34" x="487.207031"/>
     <use xlink:href="#DejaVuSans-25" x="550.830078"/>
     <use xlink:href="#DejaVuSans-29" x="645.849609"/>
    </g>
   </g>
  </g>
  <g id="axis3d_3">
   <g id="line2d_16">
    <path d="M 352.090401 209.294766 
L 357.122702 99.402171 
" style="fill: none; stroke: #000000; stroke-width: 0.8; stroke-linecap: square"/>
   </g>
   <g id="xtick_14">
    <g id="line2d_17">
     <path d="M 351.322236 199.783096 
L 354.889333 200.808823 
" style="fill: none; stroke: #000000; stroke-width: 0.8; stroke-linecap: square"/>
    </g>
    <g id="text_16">
     <!-- −0.004 -->
     <g transform="translate(352.321803 205.136061) scale(0.1 -0.1)">
      <use xlink:href="#DejaVuSans-2212"/>
      <use xlink:href="#DejaVuSans-30" x="83.789062"/>
      <use xlink:href="#DejaVuSans-2e" x="147.412109"/>
      <use xlink:href="#DejaVuSans-30" x="179.199219"/>
      <use xlink:href="#DejaVuSans-30" x="242.822266"/>
      <use xlink:href="#DejaVuSans-34" x="306.445312"/>
     </g>
    </g>
   </g>
   <g id="xtick_15">
    <g id="line2d_18">
     <path d="M 352.024441 184.283287 
L 355.61486 185.29686 
" style="fill: none; stroke: #000000; stroke-width: 0.8; stroke-linecap: square"/>
    </g>
    <g id="text_17">
     <!-- −0.002 -->
     <g transform="translate(353.144595 189.662911) scale(0.1 -0.1)">
      <use xlink:href="#DejaVuSans-2212"/>
      <use xlink:href="#DejaVuSans-30" x="83.789062"/>
      <use xlink:href="#DejaVuSans-2e" x="147.412109"/>
      <use xlink:href="#DejaVuSans-30" x="179.199219"/>
      <use xlink:href="#DejaVuSans-30" x="242.822266"/>
      <use xlink:href="#DejaVuSans-32" x="306.445312"/>
     </g>
    </g>
   </g>
   <g id="xtick_16">
    <g id="line2d_19">
     <path d="M 352.735541 168.587128 
L 356.349589 169.588156 
" style="fill: none; stroke: #000000; stroke-width: 0.8; stroke-linecap: square"/>
    </g>
    <g id="text_18">
     <!-- 0.000 -->
     <g transform="translate(358.167626 173.994269) scale(0.1 -0.1)">
      <use xlink:href="#DejaVuSans-30"/>
      <use xlink:href="#DejaVuSans-2e" x="63.623047"/>
      <use xlink:href="#DejaVuSans-30" x="95.410156"/>
      <use xlink:href="#DejaVuSans-30" x="159.033203"/>
      <use xlink:href="#DejaVuSans-30" x="222.65625"/>
     </g>
    </g>
   </g>
   <g id="xtick_17">
    <g id="line2d_20">
     <path d="M 353.455707 152.690865 
L 357.093696 153.678945 
" style="fill: none; stroke: #000000; stroke-width: 0.8; stroke-linecap: square"/>
    </g>
    <g id="text_19">
     <!-- 0.002 -->
     <g transform="translate(359.011407 158.126405) scale(0.1 -0.1)">
      <use xlink:href="#DejaVuSans-30"/>
      <use xlink:href="#DejaVuSans-2e" x="63.623047"/>
      <use xlink:href="#DejaVuSans-30" x="95.410156"/>
      <use xlink:href="#DejaVuSans-30" x="159.033203"/>
      <use xlink:href="#DejaVuSans-32" x="222.65625"/>
     </g>
    </g>
   </g>
   <g id="xtick_18">
    <g id="line2d_21">
     <path d="M 354.185113 136.590647 
L 357.847362 137.565361 
" style="fill: none; stroke: #000000; stroke-width: 0.8; stroke-linecap: square"/>
    </g>
    <g id="text_20">
     <!-- 0.004 -->
     <g transform="translate(359.865985 142.055495) scale(0.1 -0.1)">
      <use xlink:href="#DejaVuSans-30"/>
      <use xlink:href="#DejaVuSans-2e" x="63.623047"/>
      <use xlink:href="#DejaVuSans-30" x="95.410156"/>
      <use xlink:href="#DejaVuSans-30" x="159.033203"/>
      <use xlink:href="#DejaVuSans-34" x="222.65625"/>
     </g>
    </g>
   </g>
   <g id="xtick_19">
    <g id="line2d_22">
     <path d="M 354.923938 120.282522 
L 358.610772 121.243443 
" style="fill: none; stroke: #000000; stroke-width: 0.8; stroke-linecap: square"/>
    </g>
    <g id="text_21">
     <!-- 0.006 -->
     <g transform="translate(360.731569 125.777618) scale(0.1 -0.1)">
      <use xlink:href="#DejaVuSans-30"/>
      <use xlink:href="#DejaVuSans-2e" x="63.623047"/>
      <use xlink:href="#DejaVuSans-30" x="95.410156"/>
      <use xlink:href="#DejaVuSans-30" x="159.033203"/>
      <use xlink:href="#DejaVuSans-36" x="222.65625"/>
     </g>
    </g>
   </g>
   <g id="xtick_20">
    <g id="line2d_23">
     <path d="M 355.672365 103.762438 
L 359.384117 104.709123 
" style="fill: none; stroke: #000000; stroke-width: 0.8; stroke-linecap: square"/>
    </g>
    <g id="text_22">
     <!-- 0.008 -->
     <g transform="translate(361.608372 109.288748) scale(0.1 -0.1)">
      <use xlink:href="#DejaVuSans-30"/>
      <use xlink:href="#DejaVuSans-2e" x="63.623047"/>
      <use xlink:href="#DejaVuSans-30" x="95.410156"/>
      <use xlink:href="#DejaVuSans-30" x="159.033203"/>
      <use xlink:href="#DejaVuSans-38" x="222.65625"/>
     </g>
    </g>
   </g>
   <g id="text_23">
    <!-- PC3 (19.81%) -->
    <g transform="translate(396.117273 184.476253) rotate(-87.378092) scale(0.1 -0.1)">
     <defs>
      <path id="DejaVuSans-39" d="M 703 97 
L 703 672 
Q 941 559 1184 500 
Q 1428 441 1663 441 
Q 2288 441 2617 861 
Q 2947 1281 2994 2138 
Q 2813 1869 2534 1725 
Q 2256 1581 1919 1581 
Q 1219 1581 811 2004 
Q 403 2428 403 3163 
Q 403 3881 828 4315 
Q 1253 4750 1959 4750 
Q 2769 4750 3195 4129 
Q 3622 3509 3622 2328 
Q 3622 1225 3098 567 
Q 2575 -91 1691 -91 
Q 1453 -91 1209 -44 
Q 966 3 703 97 
z
M 1959 2075 
Q 2384 2075 2632 2365 
Q 2881 2656 2881 3163 
Q 2881 3666 2632 3958 
Q 2384 4250 1959 4250 
Q 1534 4250 1286 3958 
Q 1038 3666 1038 3163 
Q 1038 2656 1286 2365 
Q 1534 2075 1959 2075 
z
" transform="scale(0.015625)"/>
     </defs>
     <use xlink:href="#DejaVuSans-50"/>
     <use xlink:href="#DejaVuSans-43" x="60.302734"/>
     <use xlink:href="#DejaVuSans-33" x="130.126953"/>
     <use xlink:href="#DejaVuSans-20" x="193.75"/>
     <use xlink:href="#DejaVuSans-28" x="225.537109"/>
     <use xlink:href="#DejaVuSans-31" x="264.550781"/>
     <use xlink:href="#DejaVuSans-39" x="328.173828"/>
     <use xlink:href="#DejaVuSans-2e" x="391.796875"/>
     <use xlink:href="#DejaVuSans-38" x="423.583984"/>
     <use xlink:href="#DejaVuSans-31" x="487.207031"/>
     <use xlink:href="#DejaVuSans-25" x="550.830078"/>
     <use xlink:href="#DejaVuSans-29" x="645.849609"/>
    </g>
   </g>
  </g>
  <g id="axes_1">
   <g id="Path3DCollection_1">
    <defs>
     <path id="m7dbc7e6c0b" d="M 0 2.236068 
C 0.593012 2.236068 1.161816 2.000462 1.581139 1.581139 
C 2.000462 1.161816 2.236068 0.593012 2.236068 0 
C 2.236068 -0.593012 2.000462 -1.161816 1.581139 -1.581139 
C 1.161816 -2.000462 0.593012 -2.236068 0 -2.236068 
C -0.593012 -2.236068 -1.161816 -2.000462 -1.581139 -1.581139 
C -2.000462 -1.161816 -2.236068 -0.593012 -2.236068 0 
C -2.236068 0.593012 -2.000462 1.161816 -1.581139 1.581139 
C -1.161816 2.000462 -0.593012 2.236068 0 2.236068 
z
" style="stroke: #000000; stroke-width: 0.3"/>
    </defs>
    <g clip-path="url(#pf969e226ac)">
     <use xlink:href="#m7dbc7e6c0b" x="280.444329" y="187.782002" style="fill: #2ca02c; stroke: #000000; stroke-width: 0.3"/>
    </g>
   </g>
   <g id="Path3DCollection_2">
    <defs>
     <path id="m811dbf8877" d="M 0 2.236068 
C 0.593012 2.236068 1.161816 2.000462 1.581139 1.581139 
C 2.000462 1.161816 2.236068 0.593012 2.236068 0 
C 2.236068 -0.593012 2.000462 -1.161816 1.581139 -1.581139 
C 1.161816 -2.000462 0.593012 -2.236068 0 -2.236068 
C -0.593012 -2.236068 -1.161816 -2.000462 -1.581139 -1.581139 
C -2.000462 -1.161816 -2.236068 -0.593012 -2.236068 0 
C -2.236068 0.593012 -2.000462 1.161816 -1.581139 1.581139 
C -1.161816 2.000462 -0.593012 2.236068 0 2.236068 
z
" style="stroke: #000000; stroke-width: 0.3"/>
    </defs>
    <g clip-path="url(#pf969e226ac)">
     <use xlink:href="#m811dbf8877" x="145.970467" y="200.474885" style="fill: #ff7f0e; stroke: #000000; stroke-width: 0.3"/>
     <use xlink:href="#m811dbf8877" x="138.878822" y="202.06594" style="fill: #ff7f0e; stroke: #000000; stroke-width: 0.3"/>
    </g>
   </g>
   <g id="Path3DCollection_3">
    <defs>
     <path id="m43fadec8f8" d="M 0 2.236068 
C 0.593012 2.236068 1.161816 2.000462 1.581139 1.581139 
C 2.000462 1.161816 2.236068 0.593012 2.236068 0 
C 2.236068 -0.593012 2.000462 -1.161816 1.581139 -1.581139 
C 1.161816 -2.000462 0.593012 -2.236068 0 -2.236068 
C -0.593012 -2.236068 -1.161816 -2.000462 -1.581139 -1.581139 
C -2.000462 -1.161816 -2.236068 -0.593012 -2.236068 0 
C -2.236068 0.593012 -2.000462 1.161816 -1.581139 1.581139 
C -1.161816 2.000462 -0.593012 2.236068 0 2.236068 
z
" style="stroke: #000000; stroke-width: 0.3"/>
    </defs>
    <g clip-path="url(#pf969e226ac)">
     <use xlink:href="#m43fadec8f8" x="249.865832" y="117.829378" style="fill: #d62728; stroke: #000000; stroke-width: 0.3"/>
    </g>
   </g>
   <g id="legend_1">
    <g id="patch_6">
     <path d="M 298.081625 108.1845 
L 362.216 108.1845 
Q 364.216 108.1845 364.216 106.1845 
L 364.216 48.472 
Q 364.216 46.472 362.216 46.472 
L 298.081625 46.472 
Q 296.081625 46.472 296.081625 48.472 
L 296.081625 106.1845 
Q 296.081625 108.1845 298.081625 108.1845 
z
" style="fill: #ffffff; opacity: 0.8; stroke: #cccccc; stroke-linejoin: miter"/>
    </g>
    <g id="Path3DCollection_4">
     <defs>
      <path id="m08ea5b2139" d="M 0 2.236068 
C 0.593012 2.236068 1.161816 2.000462 1.581139 1.581139 
C 2.000462 1.161816 2.236068 0.593012 2.236068 0 
C 2.236068 -0.593012 2.000462 -1.161816 1.581139 -1.581139 
C 1.161816 -2.000462 0.593012 -2.236068 0 -2.236068 
C -0.593012 -2.236068 -1.161816 -2.000462 -1.581139 -1.581139 
C -2.000462 -1.161816 -2.236068 -0.593012 -2.236068 0 
C -2.236068 0.593012 -2.000462 1.161816 -1.581139 1.581139 
C -1.161816 2.000462 -0.593012 2.236068 0 2.236068 
z
" style="stroke: #000000; stroke-width: 0.3"/>
     </defs>
     <g>
      <use xlink:href="#m08ea5b2139" x="310.081625" y="55.445438" style="fill: #1f77b4; stroke: #000000; stroke-width: 0.3"/>
     </g>
    </g>
    <g id="text_24">
     <!-- CTE27 -->
     <g transform="translate(328.081625 58.070438) scale(0.1 -0.1)">
      <defs>
       <path id="DejaVuSans-54" d="M -19 4666 
L 3928 4666 
L 3928 4134 
L 2272 4134 
L 2272 0 
L 1638 0 
L 1638 4134 
L -19 4134 
L -19 4666 
z
" transform="scale(0.015625)"/>
       <path id="DejaVuSans-45" d="M 628 4666 
L 3578 4666 
L 3578 4134 
L 1259 4134 
L 1259 2753 
L 3481 2753 
L 3481 2222 
L 1259 2222 
L 1259 531 
L 3634 531 
L 3634 0 
L 628 0 
L 628 4666 
z
" transform="scale(0.015625)"/>
       <path id="DejaVuSans-37" d="M 525 4666 
L 3525 4666 
L 3525 4397 
L 1831 0 
L 1172 0 
L 2766 4134 
L 525 4134 
L 525 4666 
z
" transform="scale(0.015625)"/>
      </defs>
      <use xlink:href="#DejaVuSans-43"/>
      <use xlink:href="#DejaVuSans-54" x="69.824219"/>
      <use xlink:href="#DejaVuSans-45" x="130.908203"/>
      <use xlink:href="#DejaVuSans-32" x="194.091797"/>
      <use xlink:href="#DejaVuSans-37" x="257.714844"/>
     </g>
    </g>
    <g id="Path3DCollection_5">
     <g>
      <use xlink:href="#m811dbf8877" x="310.081625" y="70.123563" style="fill: #ff7f0e; stroke: #000000; stroke-width: 0.3"/>
     </g>
    </g>
    <g id="text_25">
     <!-- CTE46 -->
     <g transform="translate(328.081625 72.748563) scale(0.1 -0.1)">
      <use xlink:href="#DejaVuSans-43"/>
      <use xlink:href="#DejaVuSans-54" x="69.824219"/>
      <use xlink:href="#DejaVuSans-45" x="130.908203"/>
      <use xlink:href="#DejaVuSans-34" x="194.091797"/>
      <use xlink:href="#DejaVuSans-36" x="257.714844"/>
     </g>
    </g>
    <g id="Path3DCollection_6">
     <g>
      <use xlink:href="#m7dbc7e6c0b" x="310.081625" y="84.801688" style="fill: #2ca02c; stroke: #000000; stroke-width: 0.3"/>
     </g>
    </g>
    <g id="text_26">
     <!-- FATG4 -->
     <g transform="translate(328.081625 87.426688) scale(0.1 -0.1)">
      <defs>
       <path id="DejaVuSans-46" d="M 628 4666 
L 3309 4666 
L 3309 4134 
L 1259 4134 
L 1259 2759 
L 3109 2759 
L 3109 2228 
L 1259 2228 
L 1259 0 
L 628 0 
L 628 4666 
z
" transform="scale(0.015625)"/>
       <path id="DejaVuSans-41" d="M 2188 4044 
L 1331 1722 
L 3047 1722 
L 2188 4044 
z
M 1831 4666 
L 2547 4666 
L 4325 0 
L 3669 0 
L 3244 1197 
L 1141 1197 
L 716 0 
L 50 0 
L 1831 4666 
z
" transform="scale(0.015625)"/>
       <path id="DejaVuSans-47" d="M 3809 666 
L 3809 1919 
L 2778 1919 
L 2778 2438 
L 4434 2438 
L 4434 434 
Q 4069 175 3628 42 
Q 3188 -91 2688 -91 
Q 1594 -91 976 548 
Q 359 1188 359 2328 
Q 359 3472 976 4111 
Q 1594 4750 2688 4750 
Q 3144 4750 3555 4637 
Q 3966 4525 4313 4306 
L 4313 3634 
Q 3963 3931 3569 4081 
Q 3175 4231 2741 4231 
Q 1884 4231 1454 3753 
Q 1025 3275 1025 2328 
Q 1025 1384 1454 906 
Q 1884 428 2741 428 
Q 3075 428 3337 486 
Q 3600 544 3809 666 
z
" transform="scale(0.015625)"/>
      </defs>
      <use xlink:href="#DejaVuSans-46"/>
      <use xlink:href="#DejaVuSans-41" x="48.394531"/>
      <use xlink:href="#DejaVuSans-54" x="109.052734"/>
      <use xlink:href="#DejaVuSans-47" x="170.136719"/>
      <use xlink:href="#DejaVuSans-34" x="247.626953"/>
     </g>
    </g>
    <g id="Path3DCollection_7">
     <g>
      <use xlink:href="#m43fadec8f8" x="310.081625" y="99.479813" style="fill: #d62728; stroke: #000000; stroke-width: 0.3"/>
     </g>
    </g>
    <g id="text_27">
     <!-- NTE -->
     <g transform="translate(328.081625 102.104813) scale(0.1 -0.1)">
      <defs>
       <path id="DejaVuSans-4e" d="M 628 4666 
L 1478 4666 
L 3547 763 
L 3547 4666 
L 4159 4666 
L 4159 0 
L 3309 0 
L 1241 3903 
L 1241 0 
L 628 0 
L 628 4666 
z
" transform="scale(0.015625)"/>
      </defs>
      <use xlink:href="#DejaVuSans-4e"/>
      <use xlink:href="#DejaVuSans-54" x="74.804688"/>
      <use xlink:href="#DejaVuSans-45" x="135.888672"/>
     </g>
    </g>
   </g>
   <g id="Path3DCollection_8">
    <g clip-path="url(#pf969e226ac)">
     <use xlink:href="#m08ea5b2139" x="263.698393" y="243.36793" style="fill: #1f77b4; stroke: #000000; stroke-width: 0.3"/>
     <use xlink:href="#m08ea5b2139" x="268.63794" y="247.06244" style="fill: #1f77b4; stroke: #000000; stroke-width: 0.3"/>
    </g>
   </g>
  </g>
 </g>
 <defs>
  <clipPath id="pf969e226ac">
   <rect x="103.104" y="41.472" width="266.112" height="266.112"/>
  </clipPath>
 </defs>
</svg>
